<?xml version="1.0" encoding="UTF-8"?>
<svg xmlns="http://www.w3.org/2000/svg" viewBox="0 0 185.69978 35.53719">
  <defs>
    <style>
      .cls-1 {
        fill: #fff;
      }
    </style>
  </defs>
  <g id="Layer_1" data-name="Layer 1"/>
  <g id="Layer_2" data-name="Layer 2">
    <path class="cls-1" d="M17.19258,3.3619c0,1.89415-.41147,5.54715-1.8516,6.15598-2.4688,1.55591-5.90813-.87268-7.61213-3.45005C5.67152,2.95601,10.67769,1.06186,13.55796,.18243s3.63462,1.62356,3.63462,3.17946Z"/>
    <path class="cls-1" d="M22.64911,.45022c2.35757,.48138,3.16686,2.70129,3.21482,4.22316,.02218,.70355,.03109,1.82471-.68247,2.44377-1.82711,1.58517-7.60436,.10332-7.61811-2.57192-.00909-1.77652,2.59771-4.60302,5.08576-4.09501Z"/>
    <path class="cls-1" d="M32.28527,9.24922c.1264,2.35112-1.28933,2.55337-2.83146,3.03371-.82911,.25825-5.27995,.86912-5.46622-.92301-.13622-1.3106,2.92245-7.36913,5.33981-7.36913,2.1236,0,2.9222,4.59497,2.95787,5.25843Z"/>
    <path class="cls-1" d="M30.5746,14.47394s.40449-3.4382,2.76404-3.4382,2.83146,2.76404,2.83146,3.4382,.20225,1.61798-2.69663,1.61798-2.89888-.8764-2.89888-1.61798Z"/>
    <path class="cls-1" d="M32.46224,18.1481c0,.80899,2.39326,2.86517,3.57303,2.86517,.63009,0,.91874-2.57183,.6456-3.96563-.12247-.62495-.62851-.73844-.79947-.75188-1.1916-.0937-3.37527,.85488-3.41917,1.85235Z"/>
    <path class="cls-1" d="M16.7628,10.89248c.97432,1.06861,1.89607,1.94663,3.26124,3.10955,1.22474,1.0433,1.76966,.80899,2.07303-.50562s.42312-3.20293,.40449-3.99438c-.05056-2.14888-3.86992-1.80537-5.51124-.91011-.83427,.45506-1.01124,1.44101-.22753,2.30056Z"/>
    <path class="cls-1" d="M22.57741,14.88686c0-2.1236,1.01124-2.25,1.54213-2.25s4.67697,2.17416,6.06742,3.79213-.05056,2.3764-1.36517,2.52809-6.24438,.25281-6.24438-4.07022Z"/>
    <path class="cls-1" d="M35.44539,23.25484c0,3.38764-4.70225,7.98876-7.58427,10.21348s-4.09551-.91011-3.99438-2.47753,.50562-3.99438,1.16292-7.83708,3.99438-3.79213,4.60112-3.79213,5.81461,.20225,5.81461,3.89326Z"/>
    <path class="cls-1" d="M14.56336,21.5863c-1.51685,1.97191-.00345,4.37456,2.27528,4.90449,2.17416,.50562,4.70225,.55618,6.47191-.80899,1.7326-1.33657,.35393-9-2.3764-9.20225s-4.85393,3.13483-6.37079,5.10674Z"/>
    <path class="cls-1" d="M12.61673,10.51327c-3.10112-1.44944-4.34831,.10112-4.85393,1.07865s-1.76124,4.60112,1.33989,4.83708,7.35247,.01686,9.70787-.20225c1.44944-.13483,1.79266-1.17612-.16854-2.39326-3.59831-2.23315-6.02528-3.32022-6.02528-3.32022Z"/>
    <path class="cls-1" d="M10.58102,18.36656c.34738,.74915,.92776,1.41399,1.67935,2.01694,.8367,.57921,1.42658,.57921,2.09311,.01904,.65271-.53076,1.16159-1.14317,1.56705-1.81422,.36194-.60876,.04171-1.28292-.64456-1.41774-1.556-.20821-2.96347-.24127-4.13812,0-.7037,.16853-.77111,.70786-.55682,1.19598Z"/>
    <path class="cls-1" d="M23.43671,28.74836l-.60043,5.01359c-.18519,1.54635-1.98147,2.30511-3.21916,1.35979l-3.93315-3.00406c-.83538-.63805-.70024-1.93381,.24883-2.38574l5.33554-2.54073c1.08381-.5161,2.31111,.36525,2.16837,1.55716Z"/>
    <path class="cls-1" d="M15.50718,28.0245c0-1.98876-2.96629-3.53933-3.91011-3.53933s-2.02247,.91011-2.05618,3.03371,.91011,3.06742,2.02247,3.06742,3.94382-.80899,3.94382-2.5618Z"/>
    <path class="cls-1" d="M10.26561,20.29698c-.93075,.09308-1.99719,2.83146-1.23876,3.66573s3.56461,.1264,3.89326-.98596-1.13764-2.83146-2.65449-2.67978Z"/>
    <path class="cls-1" d="M8.8246,26.54136c0-3.86798-1.84551-4.28933-3.81742-3.64045-2.01175,.66199-2.73034,1.41573-2.7809,2.70506,0,2.95787,3.91854,5.73876,5.46067,5.73876s1.13764-4.80337,1.13764-4.80337Z"/>
    <path class="cls-1" d="M6.23752,15.75484C4.18134,13.63124,.06898,19.73237,.5746,22.12563s7.13286-.68718,8.14888-1.5c1.89607-1.51685-2.48596-4.87079-2.48596-4.87079Z"/>
    <path class="cls-1" d="M6.20381,12.82226c0,2.32584-3.37079,2.86517-4.14607,2.86517-4.01124,0-1.03941-4.64691-.37079-5.42697,1.21348-1.21348,4.51685,.50562,4.51685,2.5618Z"/>
    <path class="cls-1" d="M5.90044,4.66495c1.44944,.10112,2.41011,5.10674,1.73596,5.74719s-4.31461-.60674-4.34831-2.22472,1.43258-3.55618,2.61236-3.52247Z"/>
    <path class="cls-1" d="M15.00157,34.8672c-.55618,.55618-4.24719-.40449-4.24719-1.01124,0-1.58427,2.79775-4.07865,3.64045-2.35955s.94382,3.03371,.60674,3.37079Z"/>
    <g>
      <path class="cls-1" d="M47.79874,25.50863l-5.22414-15.04881h2.70914l3.9985,12.06072,4.02008-12.06072h2.68757l-5.22414,15.04881h-2.96701Z"/>
      <path class="cls-1" d="M69.39272,23.38533c-1.51243,1.51194-3.35774,2.26791-5.53594,2.26791-2.17869,0-4.024-.75597-5.53594-2.26791-1.51243-1.51194-2.26791-3.35725-2.26791-5.53594s.75548-4.02351,2.26791-5.53594c1.51194-1.51194,3.35725-2.26791,5.53594-2.26791,2.17819,0,4.02351,.75597,5.53594,2.26791,1.51194,1.51243,2.26791,3.35725,2.26791,5.53594s-.75597,4.024-2.26791,5.53594Zm-9.3305-1.67716c1.02463,1.02512,2.28948,1.53743,3.79456,1.53743s2.76944-.51231,3.79456-1.53743c1.02463-1.02463,1.53694-2.31105,1.53694-3.85878s-.51231-2.83415-1.53694-3.85927c-1.02512-1.02414-2.28948-1.53694-3.79456-1.53694s-2.76993,.5128-3.79456,1.53694c-1.02463,1.02512-1.53694,2.31154-1.53694,3.85927s.51231,2.83415,1.53694,3.85878Z"/>
      <path class="cls-1" d="M83.39641,13.09228c-.78833-.43731-1.6698-.65596-2.64443-.65596-1.57665,0-2.87337,.51624-3.89114,1.54773-1.01777,1.03198-1.52616,2.32184-1.52616,3.87006,0,1.54773,.51231,2.83072,1.53694,3.848,1.02463,1.01777,2.36841,1.52665,4.03086,1.52665,3.68896,0,4.57188-2.88178,4.80132-3.92847h-5.66292v-2.21398h8.44382v1.03198c0,2.06348-.91037,4.23978-2.2718,5.55121-1.36192,1.31143-3.13909,1.9669-5.3315,1.9669-2.32184,0-4.23922-.75254-5.75116-2.25713-1.51243-1.50508-2.26791-3.35382-2.26791-5.54672,0-2.17869,.75548-4.02351,2.26791-5.53594,1.51194-1.51194,3.38618-2.26791,5.62173-2.26791,1.40458,0,2.68757,.3221,3.84849,.96727,2.85615,1.50608,3.68199,4.72518,3.68199,4.72518h-2.66292s-.52247-1.61798-2.22313-2.62885Z"/>
      <path class="cls-1" d="M99.78377,24.35849c-1.06091,.95305-2.4292,1.42958-4.10636,1.42958-1.67667,0-3.04545-.47653-4.10587-1.42958-1.06091-.95305-1.59087-2.23212-1.59087-3.8377V10.45982h2.47235v9.91047c0,.91775,.26866,1.64872,.80598,2.1929,.53732,.54516,1.34378,.81725,2.41842,.81725,1.07513,0,1.8811-.27209,2.41891-.81725,.53732-.54418,.80598-1.27515,.80598-2.1929V10.45982h2.47235v10.06098c0,1.60558-.53045,2.88465-1.59087,3.8377Z"/>
      <path class="cls-1" d="M105.539,23.14365h7.1884v2.36498h-9.66075V10.45982h9.55289v2.36449h-7.08054v3.91271h6.54323v2.34341h-6.54323v4.06322Z"/>
      <path class="cls-1" d="M139.43689,23.14365h7.0422v2.36498h-9.51455V10.45982h2.47235v12.68383Z"/>
      <path class="cls-1" d="M147.74567,10.45982h2.47235v15.04881h-2.47235V10.45982Z"/>
      <path class="cls-1" d="M161.63078,10.45982h2.46067v15.04881h-2.25843l-6.99255-10.93356v10.93356h-2.47235V10.45982h2.82445l6.4382,10.21148V10.45982Z"/>
      <path class="cls-1" d="M166.32345,10.45982h2.47235v15.04881h-2.47235V10.45982Z"/>
    </g>
    <path class="cls-1" d="M128.06502,23.14098c-2.96997,0-5.35999-2.38995-5.35999-5.34998,0-2.95001,2.39001-5.34998,5.35999-5.34998,2.15002,0,4,1.26996,4.85004,3.10999h2.56c-.95001-3.19-3.91003-5.51001-7.41003-5.51001-4.28998,0-7.75995,3.47003-7.75995,7.75,0,4.28998,3.46997,7.76001,7.75995,7.76001,3.49005,0,6.43005-2.31,7.40002-5.47998h-2.57001c-.84998,1.81995-2.69,3.06995-4.83002,3.06995Z"/>
    <path class="cls-1" d="M178.28974,23.14098c-2.96997,0-5.35999-2.38995-5.35999-5.34998,0-2.95001,2.39001-5.34998,5.35999-5.34998,2.15002,0,4,1.26996,4.85004,3.10999h2.56c-.95001-3.19-3.91003-5.51001-7.41003-5.51001-4.28998,0-7.75995,3.47003-7.75995,7.75,0,4.28998,3.46997,7.76001,7.75995,7.76001,3.49005,0,6.43005-2.31,7.40002-5.47998h-2.57001c-.84998,1.81995-2.69,3.06995-4.83002,3.06995Z"/>
    <g>
      <path class="cls-1" d="M86.92239,30.52739h.57373v3.29492h-.57373v-1.37744h-1.70654v1.37744h-.57324v-3.29492h.57324v1.37061h1.70654v-1.37061Z"/>
      <path class="cls-1" d="M90.88284,33.40727c-.33838,.33398-.74902,.50049-1.23242,.50049s-.89258-.1665-1.229-.50049c-.33594-.33398-.50391-.74463-.50391-1.23242s.16797-.89844,.50391-1.23242c.33643-.3335,.74561-.50098,1.229-.50098s.89404,.16748,1.23242,.50098c.33838,.33398,.50732,.74463,.50732,1.23242s-.16895,.89844-.50732,1.23242Zm-1.23242-.05957c.32959,0,.60645-.11182,.83057-.33594s.33594-.50293,.33594-.83691-.11182-.61279-.33594-.83691-.50098-.33594-.83057-.33594c-.3252,0-.59961,.11182-.82373,.33594s-.33594,.50293-.33594,.83691,.11182,.61279,.33594,.83691,.49854,.33594,.82373,.33594Z"/>
      <path class="cls-1" d="M94.00003,32.12895c.33838,.14062,.50732,.39502,.50732,.76416,0,.27246-.09131,.49561-.27344,.66895s-.44287,.26025-.78076,.26025h-1.64746v-3.29492h1.51562c.32959,0,.58398,.08252,.76416,.24707s.27051,.38135,.27051,.64893c0,.31641-.11865,.55176-.35596,.70557Zm-.70508-1.0874h-.9292v.86328h.9292c.33398,0,.50098-.14746,.50098-.44189,0-.28076-.16699-.42139-.50098-.42139Zm.125,2.26025c.16699,0,.29541-.03955,.38574-.11865,.08984-.0791,.13477-.19141,.13477-.33594,0-.13623-.04492-.24268-.13477-.31982-.09033-.07666-.21875-.11523-.38574-.11523h-1.0542v.88965h1.0542Z"/>
      <path class="cls-1" d="M97.59134,30.52739h.57324v3.29492h-.57324v-.56689c-.28564,.43506-.70068,.65234-1.24561,.65234-.46094,0-.85449-.16797-1.1792-.50391-.3252-.33594-.48779-.74561-.48779-1.229s.1626-.89307,.48779-1.229c.32471-.33594,.71826-.50439,1.1792-.50439,.54492,0,.95996,.21777,1.24561,.65283v-.56689Zm-1.17285,2.82715c.3335,0,.61279-.11328,.83691-.33936,.22412-.22656,.33594-.50635,.33594-.84033s-.11182-.61377-.33594-.84033c-.22412-.22607-.50342-.33936-.83691-.33936-.32959,0-.60645,.11328-.83057,.33936-.22412,.22656-.33594,.50635-.33594,.84033s.11182,.61377,.33594,.84033c.22412,.22607,.50098,.33936,.83057,.33936Z"/>
      <path class="cls-1" d="M101.23587,30.52739v3.29492h-.56641v-1.18604h-.48145l-.92236,1.18604h-.69873l.9624-1.21924c-.24609-.06152-.44629-.18457-.59961-.36914-.15381-.18408-.23096-.39941-.23096-.64551,0-.30322,.10791-.55566,.32324-.75781,.21484-.20215,.48535-.30322,.81055-.30322h1.40332Zm-1.38379,1.59473h.81738v-1.06104h-.81738c-.1626,0-.30078,.04834-.41504,.14502s-.17139,.22656-.17139,.38867c0,.1582,.05713,.28564,.17139,.38232s.25244,.14502,.41504,.14502Z"/>
      <path class="cls-1" d="M104.41214,30.44145c.50098,0,.90625,.1626,1.21582,.48779s.46484,.74023,.46484,1.24561c0,.50098-.15625,.91504-.46826,1.24219s-.71826,.49072-1.21875,.49072c-.35156,0-.65918-.07764-.92285-.23389-.26367-.15576-.45459-.36768-.57324-.63574l.48779-.2832c.06982,.18018,.19189,.3252,.36572,.43457,.17334,.10986,.3877,.16504,.64258,.16504,.28516,0,.5249-.0835,.71826-.25049,.19287-.16699,.31592-.38672,.36865-.65918h-1.46924v-.54004h1.46924c-.05273-.27246-.17334-.49219-.3623-.65918s-.42627-.25049-.71143-.25049c-.23291,0-.43652,.05371-.60986,.16162-.17334,.10742-.30225,.25146-.38525,.43164l-.49463-.28369c.13184-.26758,.32959-.47852,.59326-.63232s.56006-.23096,.88965-.23096Z"/>
      <path class="cls-1" d="M108.32669,30.44145c.46094,0,.85449,.16846,1.1792,.50439,.3252,.33594,.48779,.74561,.48779,1.229s-.1626,.89307-.48779,1.229c-.32471,.33594-.71826,.50391-1.1792,.50391-.54492,0-.95996-.21729-1.24561-.65234v1.88477h-.57324v-4.61279h.57324v.56689c.28564-.43506,.70068-.65283,1.24561-.65283Zm-.07275,2.91309c.32959,0,.60645-.11328,.83057-.33936,.22412-.22656,.33594-.50635,.33594-.84033s-.11182-.61377-.33594-.84033c-.22412-.22607-.50098-.33936-.83057-.33936-.33398,0-.61279,.11328-.83691,.33936-.22412,.22656-.33594,.50635-.33594,.84033s.11182,.61377,.33594,.84033c.22412,.22607,.50293,.33936,.83691,.33936Z"/>
      <path class="cls-1" d="M113.14358,30.52739h.57324v3.29492h-.57324v-.56689c-.28564,.43506-.70068,.65234-1.24561,.65234-.46094,0-.85449-.16797-1.1792-.50391-.3252-.33594-.48779-.74561-.48779-1.229s.1626-.89307,.48779-1.229c.32471-.33594,.71826-.50439,1.1792-.50439,.54492,0,.95996,.21777,1.24561,.65283v-.56689Zm-1.17285,2.82715c.3335,0,.61279-.11328,.83691-.33936,.22412-.22656,.33594-.50635,.33594-.84033s-.11182-.61377-.33594-.84033c-.22412-.22607-.50342-.33936-.83691-.33936-.32959,0-.60645,.11328-.83057,.33936-.22412,.22656-.33594,.50635-.33594,.84033s.11182,.61377,.33594,.84033c.22412,.22607,.50098,.33936,.83057,.33936Z"/>
      <path class="cls-1" d="M117.48685,32.1353c.36426,.14941,.54688,.41064,.54688,.78418,0,.27686-.10986,.51074-.32959,.70166-.21973,.19141-.53174,.28662-.93555,.28662-.65918,0-1.10059-.26318-1.32471-.79053l.48096-.2832c.12744,.35986,.41064,.54004,.8501,.54004,.21973,0,.38965-.04688,.51074-.1416,.12061-.09424,.18115-.21631,.18115-.36572,0-.13184-.04932-.23926-.14795-.32275-.09912-.0835-.23193-.12549-.39893-.12549h-.48096v-.52051h.35596c.1665,0,.29639-.04053,.38867-.12207,.09229-.08105,.13818-.19189,.13818-.33252s-.05371-.25488-.16113-.34277c-.10791-.08789-.25635-.13184-.44482-.13184-.36914,0-.61963,.15625-.75146,.46777l-.46777-.27002c.23291-.4834,.63916-.7251,1.21924-.7251,.35986,0,.64453,.09229,.85303,.27686,.20898,.18457,.31299,.41113,.31299,.67871,0,.33398-.13135,.58008-.39502,.73828Z"/>
      <path class="cls-1" d="M121.17044,33.27544h.45459v1.42969h-.56641v-.88281h-2.47119v.88281h-.56689v-1.42969h.40186c.21094-.29004,.31641-.69629,.31641-1.21924v-1.52881h2.43164v2.74805Zm-2.0957,0h1.52881v-2.21436h-1.29785v.99512c0,.49219-.07715,.89844-.23096,1.21924Z"/>
      <path class="cls-1" d="M124.62991,33.40727c-.33838,.33398-.74902,.50049-1.23242,.50049s-.89258-.1665-1.229-.50049c-.33594-.33398-.50391-.74463-.50391-1.23242s.16797-.89844,.50391-1.23242c.33643-.3335,.74561-.50098,1.229-.50098s.89404,.16748,1.23242,.50098c.33838,.33398,.50732,.74463,.50732,1.23242s-.16895,.89844-.50732,1.23242Zm-1.23242-.05957c.32959,0,.60645-.11182,.83057-.33594s.33594-.50293,.33594-.83691-.11182-.61279-.33594-.83691-.50098-.33594-.83057-.33594c-.3252,0-.59961,.11182-.82373,.33594s-.33594,.50293-.33594,.83691,.11182,.61279,.33594,.83691,.49854,.33594,.82373,.33594Z"/>
      <path class="cls-1" d="M127.37161,30.44145c.46094,0,.85449,.16846,1.1792,.50439,.3252,.33594,.48779,.74561,.48779,1.229s-.1626,.89307-.48779,1.229c-.32471,.33594-.71826,.50391-1.1792,.50391-.54492,0-.95996-.21729-1.24561-.65234v1.88477h-.57324v-4.61279h.57324v.56689c.28564-.43506,.70068-.65283,1.24561-.65283Zm-.07275,2.91309c.32959,0,.60645-.11328,.83057-.33936,.22412-.22656,.33594-.50635,.33594-.84033s-.11182-.61377-.33594-.84033c-.22412-.22607-.50098-.33936-.83057-.33936-.33398,0-.61279,.11328-.83691,.33936-.22412,.22656-.33594,.50635-.33594,.84033s.11182,.61377,.33594,.84033c.22412,.22607,.50293,.33936,.83691,.33936Z"/>
      <path class="cls-1" d="M132.24124,33.40727c-.33838,.33398-.74902,.50049-1.23242,.50049s-.89258-.1665-1.229-.50049c-.33594-.33398-.50391-.74463-.50391-1.23242s.16797-.89844,.50391-1.23242c.33643-.3335,.74561-.50098,1.229-.50098s.89404,.16748,1.23242,.50098c.33838,.33398,.50732,.74463,.50732,1.23242s-.16895,.89844-.50732,1.23242Zm-1.23242-.05957c.32959,0,.60645-.11182,.83057-.33594s.33594-.50293,.33594-.83691-.11182-.61279-.33594-.83691-.50098-.33594-.83057-.33594c-.3252,0-.59961,.11182-.82373,.33594s-.33594,.50293-.33594,.83691,.11182,.61279,.33594,.83691,.49854,.33594,.82373,.33594Z"/>
      <path class="cls-1" d="M135.35843,32.12895c.33838,.14062,.50732,.39502,.50732,.76416,0,.27246-.09131,.49561-.27344,.66895s-.44287,.26025-.78076,.26025h-1.64746v-3.29492h1.51562c.32959,0,.58398,.08252,.76416,.24707s.27051,.38135,.27051,.64893c0,.31641-.11865,.55176-.35596,.70557Zm-.70508-1.0874h-.9292v.86328h.9292c.33398,0,.50098-.14746,.50098-.44189,0-.28076-.16699-.42139-.50098-.42139Zm.125,2.26025c.16699,0,.29541-.03955,.38574-.11865,.08984-.0791,.13477-.19141,.13477-.33594,0-.13623-.04492-.24268-.13477-.31982-.09033-.07666-.21875-.11523-.38574-.11523h-1.0542v.88965h1.0542Z"/>
      <path class="cls-1" d="M137.61185,31.71342c.32959,0,.60303,.09814,.8208,.29346,.21729,.19531,.32617,.44922,.32617,.76123s-.10889,.56543-.32617,.76074c-.21777,.1958-.49121,.29346-.8208,.29346h-1.39014v-3.29492h.57324v1.18604h.81689Zm0,1.5752c.1626,0,.2998-.04736,.41211-.1416,.11182-.09473,.16797-.2207,.16797-.37891s-.05615-.28564-.16797-.38232c-.1123-.09668-.24951-.14502-.41211-.14502h-.81689v1.04785h.81689Z"/>
      <path class="cls-1" d="M141.37454,30.52739v3.29492h-.56641v-1.18604h-.48145l-.92236,1.18604h-.69873l.9624-1.21924c-.24609-.06152-.44629-.18457-.59961-.36914-.15381-.18408-.23096-.39941-.23096-.64551,0-.30322,.10791-.55566,.32324-.75781,.21484-.20215,.48535-.30322,.81055-.30322h1.40332Zm-1.38379,1.59473h.81738v-1.06104h-.81738c-.1626,0-.30078,.04834-.41504,.14502s-.17139,.22656-.17139,.38867c0,.1582,.05713,.28564,.17139,.38232s.25244,.14502,.41504,.14502Z"/>
    </g>
  </g>
</svg>