<?xml version="1.0" encoding="UTF-8"?>
<svg id="Layer_1" data-name="Layer 1" xmlns="http://www.w3.org/2000/svg" viewBox="0 0 167.3862 27.0508">
  <defs>
    <style>
      .cls-1 {
        fill: #2a2a2a;
      }

      .cls-2 {
        fill: #f2c14e;
      }
    </style>
  </defs>
  <rect class="cls-2" x="9" y="10.71891" width="17" height="7" rx="1" ry="1"/>
  <rect class="cls-2" y="19.71891" width="17" height="7" rx="1" ry="1"/>
  <path class="cls-1" d="M54.00665,16.14624c-.57294-1.02209-1.37048-1.85529-2.39258-2.49957,1.49854-1.35577,2.24988-3.01166,2.24988-4.9635,0-2.00006-.76398-3.65387-2.28552-4.96344-1.54889-1.3327-3.46503-2.00012-5.75049-2.00012l-25.82794-.00067c-.55231,0-1,.44769-1,1V7.71893c0,.55225,.44769,1,1,1h13.57977v2h-4.57977c-.55231,0-1,.44769-1,1v5c0,.55225,.44769,1,1,1h4.57977v2h-13.57977c-.55231,0-1,.44769-1,1v5c0,.55225,.44769,1,1,1l26.5415-.0014c2.35687,0,4.33386-.69049,5.92889-2.07147,1.59503-1.38092,2.39252-3.10608,2.39252-5.17755,0-1.18994-.2854-2.2981-.85626-3.32227Zm-14.74982-9.21338h6.49976c.64221,0,1.17316,.21405,1.58875,.64429,.4176,.42816,.62537,.97589,.62537,1.64124,0,.19098-.01257,.31061-.03564,.35889-.07135,.54773-.31061,.99896-.71356,1.35577-.40509,.35675-.8941,.53516-1.4649,.53516h-6.49976V6.93286Zm8.99933,13.83899c-.47644,.48901-1.07037,.73242-1.78601,.73242h-7.21332v-5.0705h7.21332c.71564,0,1.30957,.24347,1.78601,.73035,.47638,.48901,.71356,1.08923,.71356,1.80493,0,.71356-.23718,1.31586-.71356,1.8028Z"/>
  <g>
    <path class="cls-1" d="M64.25241,26.58984h-5.31738V0h5.31738V26.58984Z"/>
    <path class="cls-1" d="M69.46433,24.28516c-1.86719-1.86621-2.80078-4.1709-2.80078-6.91309,0-2.74121,.93359-5.03418,2.80078-6.87793,1.86719-1.86719,4.21875-2.80078,7.05469-2.80078,2.8125,0,5.15234,.93359,7.02051,2.80078,1.89062,1.84375,2.83594,4.13672,2.83594,6.87793,0,2.71777-.94531,5.02246-2.83594,6.91309-1.8916,1.84375-4.23145,2.76562-7.02051,2.76562-2.83594,0-5.1875-.92188-7.05469-2.76562Zm7.05469-2.48145c1.22949,0,2.24512-.42578,3.04883-1.27637,.85156-.87402,1.27637-1.92578,1.27637-3.15527,0-1.22852-.4248-2.26855-1.27637-3.12012-.80371-.87402-1.81934-1.31152-3.04883-1.31152-1.22852,0-2.25684,.42578-3.08398,1.27637-.82812,.875-1.24121,1.92676-1.24121,3.15527,0,1.22949,.41309,2.28125,1.24121,3.15527,.82715,.85059,1.85547,1.27637,3.08398,1.27637Z"/>
    <path class="cls-1" d="M107.36374,14.03906l-5.35352,1.56055c-.33105-.80371-.85059-1.44727-1.55957-1.93262-.70898-.48438-1.5127-.72656-2.41113-.72656-1.22852,0-2.25684,.42578-3.08398,1.27637-.82812,.82715-1.24121,1.86719-1.24121,3.12012,0,1.27637,.41309,2.33984,1.24121,3.19043,.82715,.85059,1.85547,1.27637,3.08398,1.27637,.89844,0,1.70215-.24219,2.41113-.72656s1.22852-1.12891,1.55957-1.93262l5.35352,1.56055c-.70898,1.9375-1.90234,3.48047-3.58008,4.62598-1.67871,1.14648-3.59375,1.71973-5.74414,1.71973-2.83594,0-5.1875-.92188-7.05469-2.76562-1.86719-1.86621-2.80078-4.1709-2.80078-6.91309,0-2.76562,.93359-5.06934,2.80078-6.91309s4.21875-2.76562,7.05469-2.76562c2.15039,0,4.06543,.57324,5.74414,1.71973,1.67773,1.14648,2.87109,2.68848,3.58008,4.62598v-.00003Z"/>
    <path class="cls-1" d="M109.38523,26.58984V0h5.31738V15.38672l5.21191-7.23242h6.27539l-6.38184,8.89844,7.05566,9.53711h-6.38184l-5.7793-7.90625v7.90625h-5.31735Z"/>
    <path class="cls-2" d="M128.31686,18.08105v-7.7998c0-2.55273,.92188-4.67969,2.76465-6.38086,1.86719-1.72559,4.18359-2.58887,6.94922-2.58887,2.8125,0,5.12793,.86328,6.94824,2.58887,1.86719,1.70117,2.80078,3.82812,2.80078,6.38086v7.7998c0,2.55273-.93359,4.69238-2.80078,6.41699-1.84277,1.70215-4.16016,2.55273-6.94824,2.55273-2.76562,0-5.08203-.85059-6.94922-2.55273-1.84277-1.72461-2.76465-3.86426-2.76465-6.41699Zm5.38867-7.87012v7.94141c0,1.04004,.41309,1.91992,1.24023,2.64062,.82715,.72168,1.85547,1.08203,3.08496,1.08203,1.22852,0,2.25684-.36035,3.08398-1.08203,.82715-.7207,1.24121-1.60059,1.24121-2.64062v-7.94141c0-1.06348-.41406-1.9502-1.24121-2.65918s-1.85547-1.06348-3.08398-1.06348c-1.22949,0-2.25781,.35449-3.08496,1.06348s-1.24023,1.5957-1.24023,2.65918Z"/>
    <path class="cls-2" d="M161.6069,6.70117h-12.01855V1.77246h17.79785V6.98438l-8.89941,19.60547h-5.95605l9.07617-19.88867h0Z"/>
  </g>
</svg>