<?xml version="1.0" encoding="UTF-8"?>
<svg id="Layer_1" data-name="Layer 1" xmlns="http://www.w3.org/2000/svg" viewBox="0 0 44.90442 44.89996">
  <defs>
    <style>
      .cls-1 {
        fill: #0082be;
      }

      .cls-2 {
        fill: #fff;
      }

      .cls-3 {
        fill: #199bdf;
      }

      .cls-4 {
        fill: #32b4ff;
      }
    </style>
  </defs>
  <path class="cls-4" d="M44.90002,10.51996v23.87c0,5.42999-4.13,9.91003-9.42999,10.46002h-.02002c-.34998,.02997-.71002,.04999-1.07001,.04999H10.52002c-5.81,0-10.52002-4.71002-10.52002-10.51001V10.51996C0,4.70996,4.71002,0,10.52002,0h23.85999c.32001,0,.64001,.00995,.95001,.03998,5.35999,.47998,9.57001,4.98999,9.57001,10.47998Z"/>
  <path class="cls-3" d="M44.90442,10.51996v23.87c0,5.79999-4.71002,10.51001-10.52002,10.51001H10.52441C4.71441,44.89996,.00439,40.18994,.00439,34.38995v-.82001C.42437,24.52997,6.34442,12.90997,19.52441,12.90997h14.27943c2.99141,0,5.6306-2.11896,6.10386-5.0727,.06884-.42966,.1067-.89452,.1067-1.39733C40.0144,1.97998,36.6344,.45996,35.33441,.03998c5.35999,.47998,9.57001,4.98999,9.57001,10.47998Z"/>
  <path class="cls-1" d="M44.90002,11.68994v22.70001c0,5.42999-4.13,9.91003-9.42999,10.46002h-.02002c-8.34998-.10999-13.03998-5.09003-13.03998-9.22003v-2.37c0-3.48999,3.02997-10.62,9.90997-10.62,.96002,0-.20996,0,2.63,0,9,0,9.88-9.72998,9.95001-10.95001Z"/>
  <path class="cls-2" d="M35.88734,12.70622c-.14311,1.03214-.27418,2.06612-.43162,3.09606-.44522,2.91246-.89616,5.82407-1.35444,8.7345-.47541,3.01925-.96194,6.03675-1.44447,9.05487-.01261,.07887-.03397,.15646-.05342,.2341-.32236,1.2863-1.17559,1.83808-2.45113,1.46498-.71119-.20803-1.42337-.51256-2.04319-.91511-2.236-1.45222-4.43633-2.95958-6.64205-4.45802-.48029-.32629-.93067-.69734-1.38728-1.05734-.1485-.11708-.28747-.25299-.40582-.40035-.41338-.51475-.43314-1.07265-.04395-1.60491,.1524-.20842,.34332-.39142,.53127-.57071,2.55496-2.43735,5.12061-4.86361,7.65975-7.31731,.3426-.33106,.57131-.78728,.8167-1.20664,.06351-.10853,.04199-.33806-.03598-.43585-.06369-.07987-.2965-.10458-.40811-.05325-.59784,.27499-1.21931,.52421-1.76337,.88637-3.53016,2.3499-7.05241,4.71209-10.55358,7.10488-.89676,.61287-1.86223,.79637-2.86025,.58007-1.268-.27481-2.5062-.69068-3.75181-1.06389-.67112-.20108-1.33191-.43707-1.99549-.66277-.72644-.24708-.93126-1.01165-.35865-1.50864,.37063-.32169,.81746-.58634,1.27216-.77566,4.4377-1.84768,8.88504-3.67217,13.32804-5.50711,3.9063-1.61328,7.80719-3.23976,11.72048-4.83585,.43323-.1767,.93017-.25312,1.40107-.26845,.71241-.02319,1.15332,.43785,1.21112,1.15035,.00889,.10958,.00124,.2205,.00124,.33081l.0428,.0049Z"/>
</svg>