<?xml version="1.0" encoding="UTF-8"?>
<svg id="Layer_1" data-name="Layer 1" xmlns="http://www.w3.org/2000/svg" viewBox="0 0 44.90442 44.89997">
  <defs>
    <style>
      .cls-1 {
        fill: #4682c3;
      }

      .cls-2 {
        fill: #fff;
      }

      .cls-3 {
        fill: #5f9bdc;
      }

      .cls-4 {
        fill: #2d69aa;
      }
    </style>
  </defs>
  <path class="cls-3" d="M44.90002,10.51996v23.87c0,5.42999-4.13,9.91003-9.42999,10.46002h-.02002c-.34998,.02997-.71002,.04999-1.07001,.04999H10.52002c-5.81,0-10.52002-4.71002-10.52002-10.51001V10.51996C0,4.70996,4.71002,0,10.52002,0h23.85999c.32001,0,.64001,.00995,.95001,.03998,5.35999,.47998,9.57001,4.98999,9.57,10.47998Z"/>
  <path class="cls-1" d="M44.90442,10.51996v23.87c0,5.79999-4.71002,10.51001-10.52002,10.51001H10.52441c-5.81-.00001-10.52002-4.71003-10.52002-10.51002v-.82001C.42437,24.52997,6.34442,12.90997,19.52441,12.90997h14.27943c2.99141,0,5.6306-2.11896,6.10386-5.0727,.06884-.42966,.1067-.89452,.1067-1.39733C40.0144,1.97998,36.6344,.45996,35.33441,.03998c5.35999,.47998,9.57001,4.98999,9.57001,10.47998Z"/>
  <path class="cls-4" d="M44.90002,11.68994v22.70001c0,5.42999-4.13,9.91003-9.42999,10.46002h-.02002c-8.34998-.10999-13.03998-5.09003-13.03998-9.22003v-2.37c0-3.48999,3.02997-10.62,9.90997-10.62,.96002,0-.20996,0,2.63,0,9,0,9.88-9.72998,9.95001-10.95001h0Z"/>
  <path class="cls-2" d="M24.96249,18.5323c0,1.09845-.00296,2.19692,.00261,3.29535,.00106,.20897,.01116,.42376,.05999,.62547,.12034,.49712,.46808,.69741,.88519,.41438,.53354-.36203,1.05657-.78118,1.46938-1.27222,1.64445-1.95605,2.86154-4.18054,3.87558-6.51336,.36069-.82976,.90188-1.21387,1.80604-1.18338,1.05032,.03541,2.10278,.00288,3.15425,.01017,1.12148,.00777,1.42691,.45856,1.0459,1.51392-.60459,1.67467-1.56477,3.15703-2.5184,4.64089-.64417,1.00232-1.32077,1.98379-1.98307,2.97446-.53203,.7958-.53775,1.04941,.09892,1.7561,1.04715,1.16232,2.15216,2.27377,3.17168,3.45924,.62896,.73135,1.16932,1.54406,1.69795,2.35388,.18895,.28945,.26638,.67137,.32284,1.02263,.06826,.42469-.16377,.76372-.57594,.88588-.25318,.07504-.52728,.10549-.79259,.1089-.96957,.01246-1.94284-.04565-2.90814,.0198-.93907,.06367-1.6082-.33803-2.21319-.97895-.94592-1.00211-1.87692-2.02172-2.87543-2.96941-.57036-.54134-1.23437-1.00093-1.91081-1.40618-.32622-.19543-.77564-.21684-1.17474-.24876-.31319-.02504-.52417,.18692-.56949,.50825-.0374,.26522-.06315,.53426-.06544,.80185-.00789,.9231-.00125,1.84632-.00392,2.76948-.00281,.97418-.27318,1.28774-1.24464,1.43016-1.41371,.20725-2.79915,.05121-4.15385-.37404-2.71737-.85301-4.93124-2.4694-6.67519-4.67861-2.63796-3.34174-4.76854-6.98138-6.04372-11.07504-.145-.46549-.24166-.9527-.2992-1.43715-.07792-.65604,.24855-1.04467,.90794-1.05782,1.29617-.02584,2.59321-.01483,3.88983-.00747,.58412,.00332,.95455,.33089,1.16809,.8518,.51823,1.2642,.99581,2.54654,1.55686,3.79132,.71148,1.57853,1.53944,3.0999,2.62389,4.46037,.33959,.42603,.74827,.79854,1.14032,1.18012,.10357,.1008,.25619,.16641,.39802,.20976,.39665,.12125,.68073-.04347,.7427-.45326,.05395-.35671,.07772-.72093,.07983-1.08204,.00854-1.46066,.00002-2.92141,.00469-4.38211,.00375-1.17268-.28275-2.2341-1.0836-3.13485-.43358-.48767-.39237-.98876,.07261-1.29852,.14481-.09647,.34762-.14702,.5243-.14807,1.79918-.01068,3.59848-.01356,5.39767-.00345,.66969,.00376,.95201,.26741,.96911,.97522,.02934,1.21445,.00811,2.43012,.00811,3.64527l.01706,.00003Z"/>
</svg>