<?xml version="1.0" encoding="UTF-8"?>
<svg id="Layer_1" data-name="Layer 1" xmlns="http://www.w3.org/2000/svg" viewBox="0 0 44.90442 44.89996">
  <defs>
    <style>
      .cls-1 {
        fill: #00d264;
      }

      .cls-2 {
        fill: #fff;
      }

      .cls-3 {
        fill: #00eb78;
      }

      .cls-4 {
        fill: #00b950;
      }
    </style>
  </defs>
  <path class="cls-3" d="M44.90002,10.51996v23.87c0,5.42999-4.13,9.91003-9.42999,10.46002h-.02002c-.34998,.02997-.71002,.04999-1.07001,.04999H10.52002c-5.81,0-10.52002-4.71002-10.52002-10.51001V10.51996C0,4.70996,4.71002,0,10.52002,0h23.85999c.32001,0,.64001,.00995,.95001,.03998,5.35999,.47998,9.57001,4.98999,9.57001,10.47998Z"/>
  <path class="cls-1" d="M44.90442,10.51996v23.87c0,5.79999-4.71002,10.51001-10.52002,10.51001H10.52441C4.71441,44.89996,.00439,40.18994,.00439,34.38995v-.82001C.42437,24.52997,6.34442,12.90997,19.52441,12.90997h14.27943c2.99141,0,5.6306-2.11896,6.10386-5.0727,.06884-.42966,.1067-.89452,.1067-1.39733C40.0144,1.97998,36.6344,.45996,35.33441,.03998c5.35999,.47998,9.57001,4.98999,9.57001,10.47998Z"/>
  <path class="cls-4" d="M44.90002,11.68994v22.70001c0,5.42999-4.13,9.91003-9.42999,10.46002h-.02002c-8.34998-.10999-13.03998-5.09003-13.03998-9.22003v-2.37c0-3.48999,3.02997-10.62,9.90997-10.62,.96002,0-.20996,0,2.63,0,9,0,9.88-9.72998,9.95001-10.95001Z"/>
  <g>
    <path class="cls-2" d="M21.50904,6.06557c.66444,0,1.32888,0,1.99332,0,.37935,.04559,.76033,.08054,1.13779,.13843,3.57716,.5486,6.66452,2.04756,9.1765,4.6912,2.22715,2.34388,3.66001,5.08324,4.21021,8.27409,.09839,.57062,.15997,1.14759,.23854,1.72162v1.99332c-.01936,.10088-.04865,.20097-.0566,.30274-.13854,1.7727-.56249,3.47368-1.29204,5.09531-3.74467,8.32366-13.80219,11.81794-21.88702,7.61339-.13764-.07158-.33942-.09304-.49027-.05487-1.87733,.47506-3.75169,.962-5.62477,1.45366-.80839,.21219-1.61207,.4423-2.41789,.66427l-.12458-.12458c.03542-.08338,.08094-.16397,.10479-.25053,.69336-2.51653,1.38807-5.03271,2.06758-7.55298,.04204-.15593,.00954-.37084-.06864-.51461-1.80707-3.32356-2.37333-6.85367-1.70643-10.56562,1.23448-6.87108,6.75217-11.55249,12.96023-12.63522,.58966-.10284,1.18601-.16733,1.77925-.24962Zm-11.30161,28.06286c.14301-.0297,.22395-.04295,.30299-.06345,1.45423-.37726,2.9096-.75028,4.36087-1.1386,.23043-.06166,.40368-.02715,.60523,.09341,3.03578,1.81595,6.28824,2.40641,9.75087,1.63444,6.65597-1.48391,11.53018-7.81724,10.14486-15.28584-1.25093-6.74405-7.66279-11.42749-14.46533-10.60865-3.92491,.47245-7.05427,2.32941-9.3169,5.56916-1.8961,2.71493-2.67217,5.74429-2.3012,9.04945,.2311,2.05893,.95736,3.93832,2.08691,5.6659,.11889,.18183,.14803,.33864,.08633,.54558-.18647,.62548-.35577,1.25611-.52897,1.88551-.23856,.86692-.47456,1.73454-.72567,2.65312Z"/>
    <path class="cls-2" d="M26.582,29.38815c-1.07484,.0433-1.98823-.3732-2.92799-.697-2.6795-.92326-4.74885-2.66318-6.51591-4.81796-.84892-1.03519-1.69949-2.06677-2.25904-3.30073-.58808-1.29688-.82678-2.62599-.21403-3.96607,.26285-.57485,.66909-1.08943,1.0469-1.60445,.22939-.3127,.58989-.45644,.97969-.47079,.35174-.01295,.70509-.0077,1.05672,.00979,.31237,.01553,.46988,.24815,.58124,.49967,.25157,.5682,.48766,1.14326,.72917,1.71591,.19321,.45812,.37404,.92188,.58139,1.37348,.14419,.31405,.1389,.60458-.0634,.87927-.29451,.3999-.59274,.79764-.90479,1.18386-.32625,.40381-.3427,.5224-.07379,.96856,1.26666,2.10154,3.01119,3.64821,5.29543,4.57185,.4904,.1983,.65613,.16791,.99728-.24589,.37597-.45604,.74768-.91574,1.11385-1.37967,.24476-.31011,.40015-.39082,.77867-.24656,.52147,.19875,1.02825,.43723,1.53608,.67013,.34823,.1597,.68227,.35081,1.03261,.50529,.24941,.10998,.51845,.17456,.77304,.27395,.21493,.08391,.32123,.25624,.31802,.48753-.01477,1.06629-.2403,2.03305-1.18782,2.69718-.82116,.57557-1.6993,.94944-2.67333,.89265Z"/>
  </g>
</svg>