<svg width="0" height="0" class="hidden">
  <symbol id="x" xmlns="http://www.w3.org/2000/svg" viewBox="0 0 36.37074 36.37147">
    <path d="M20.30671,18.19214L35.92829,2.66541c.5874-.58398,.59033-1.5332,.00635-2.12109-.58496-.58789-1.53369-.59082-2.12158-.00586l-15.62097,15.52612L2.66511,.44276c-.58545-.58789-1.53369-.59082-2.12158-.00586C-.04388,1.02088-.04681,1.9701,.53718,2.55799l15.52686,15.6217L.44245,33.70643c-.5874,.58398-.59033,1.5332-.00635,2.12109,.29346,.29492,.67871,.44238,1.06396,.44238,.38232,0,.76465-.14551,1.05762-.43652l15.62097-15.52612,15.52698,15.62183c.29346,.29492,.67871,.44238,1.06396,.44238,.38232,0,.76465-.14551,1.05762-.43652,.5874-.58398,.59033-1.5332,.00635-2.12109l-15.52686-15.6217Z"></path>
  </symbol>
  <symbol id="whatsapp" xmlns="http://www.w3.org/2000/svg" viewBox="0 0 384 384">
    <defs></defs>
    <path d="M0,204v-24c1.22456-8.50243,2.14452-17.06179,3.72125-25.49841C18.01213,78.03509,81.85775,15.56929,158.53878,2.95417,165.66173,1.78234,172.84483,.97603,180,0c8,0,16.00001,0,24,0,1.08774,.21781,2.16918,.47606,3.26422,.64709,9.73004,1.51972,19.59837,2.43134,29.17262,4.62695,74.01107,16.97266,132.14758,78.82606,144.64991,153.62939,1.16977,6.99898,1.9514,14.06283,2.91325,21.09657v24c-.21277,.96606-.48573,1.92329-.62901,2.89957-1.30389,8.88359-2.12514,17.8659-3.9454,26.64139-15.45261,74.49728-79.04462,135.34463-153.97581,147.49928-7.12255,1.15535-14.29857,1.98102-21.44978,2.95976h-24c-.95866-.2178-1.90776-.56122-2.87739-.6351-26.50893-2.01977-51.50553-9.25877-74.95324-21.77703-2.22799-1.18945-4.20364-1.50268-6.69344-.79159-17.99593,5.13972-36.04634,10.08836-54.05362,15.18887-9.08527,2.57336-18.11659,5.33716-27.17231,8.01485h-6C4.52331,382.22669,1.77061,379.47938,0,375.75v-6c.34249-.76936,.78775-1.50993,1.01257-2.31226,7.47337-26.67032,14.96166-53.33668,22.28821-80.04737,.42232-1.53969-.07893-3.66573-.85507-5.15048-9.49909-18.17223-16.23583-37.27286-19.54957-57.52711-1.12531-6.87808-1.93968-13.80707-2.89614-20.71278Zm27.55246,152.32729c1.47609-.33703,2.4097-.50977,3.32055-.7641,21.14861-5.90474,42.32058-11.72843,63.42282-17.79465,5.15697-1.48247,9.54844-.96558,14.28082,1.67065,38.529,21.46328,79.43906,27.43751,122.38236,17.45272,93.12719-21.65309,150.19849-118.07563,124.46001-209.8376-19.8612-70.80864-82.04077-120.9136-155.12325-124.3194-42.86832-1.99776-81.55954,10.27949-114.81512,37.57339-40.09031,32.90337-61.14795,75.66021-62.84919,127.55941-1.03467,31.56445,6.71256,61.12502,22.4336,88.52987,2.27992,3.97437,2.7001,7.83746,1.44391,12.18915-3.7373,12.94666-7.31827,25.93854-10.94476,38.9171-2.63837,9.44225-5.25204,18.89136-8.01177,28.82346Z"></path>
    <path d="M0,375.75c1.77061,3.72938,4.52331,6.47669,8.25,8.25H0v-8.25Z"></path>
    <path d="M88.6909,155.89247c.19064-20.19672,6.59937-37.66248,21.37582-51.87917,6.62135-6.3705,13.014-12.7826,22.42619-14.88245,12.44131-2.77564,23.60054-.2623,33.14329,8.21458,4.66224,4.14151,9.08205,8.60381,13.24822,13.24695,12.6271,14.07275,12.50765,34.70928-.11453,48.81785-1.74792,1.95375-3.65293,3.76654-5.4743,5.6551-3.85553,3.99771-3.96499,7.52853-.13014,11.38766,11.45186,11.5243,22.93676,23.01611,34.46655,34.46242,3.7142,3.68731,7.1315,3.41968,11.16637-.02431,4.71549-4.02491,9.21307-8.73566,14.66256-11.38607,13.99752-6.80786,27.52247-4.78553,39.4557,5.21452,5.05534,4.23635,9.67646,9.06976,14.05177,14.02327,11.48687,13.00479,12.28413,32.39761,1.49352,45.89866-12.17205,15.22945-26.96457,26.59866-47.07667,29.42416-16.8522,2.36755-33.32057,.52222-48.99355-5.60557-48.62733-19.01225-82.0527-52.95701-98.79177-102.73344-1.62179-4.82267-2.62114-9.89921-3.44163-14.93413-.80109-4.91583-1.00264-9.92937-1.46739-14.90004Zm22.97718,.36312l-1.0601,.04747c1.53091,7.80785,2.23535,15.89114,4.73043,23.37765,13.49718,40.49849,40.80365,68.51729,79.46491,85.72527,12.2341,5.44537,25.21282,7.70952,38.71401,6.9402,16.49668-.94002,28.14988-9.98982,37.73341-22.30872,3.88039-4.98795,2.92339-12.10634-1.54651-16.90269-3.57541-3.83654-7.28245-7.56779-11.13602-11.12366-5.68302-5.24403-13.61391-5.08008-19.29874,.21996-2.00965,1.87363-3.86108,3.91791-5.88409,5.77613-11.87769,10.91029-29.10203,10.95234-40.63623-.25786-12.364-12.01666-24.56474-24.20984-36.5675-36.58709-11.19292-11.5421-11.09847-28.84214-.15595-40.62745,1.95444-2.10497,4.10593-4.02932,6.02599-6.16342,4.85433-5.39544,5.13383-13.09923,.35613-18.43505-3.82718-4.27425-7.91965-8.34776-12.19589-12.17333-4.75932-4.25775-12.05689-4.57129-16.96721-.59451-13.62767,11.03683-22.89433,24.40908-21.57664,43.08712Z"></path>
  </symbol>
  <symbol id="telephone" xmlns="http://www.w3.org/2000/svg" viewBox="0 0 408.72585 394.17526">
    <path d="M408.72585,126.73572c-.72061,3.20669-1.35892,6.43448-2.17546,9.61655-4.54247,17.70279-16.39003,27.25964-34.71031,27.49799-16.35941,.21287-32.72851,.20681-49.08616-.09279-24.44983-.44783-39.34181-20.47883-33.12897-44.17029,.57125-2.17837,1.10246-4.36724,1.71294-6.79232-57.87308-27.51611-115.702-28.18294-173.94956-.41885,.63204,2.56026,1.23249,5.1121,1.89276,7.64838,5.52356,21.21731-7.70588,41.55111-29.5766,42.92207-19.33074,1.21174-38.83991,.73612-58.21-.21832-14.59998-.7194-25.4287-11.3298-29.14894-25.51293-6.16531-23.50479,.23456-44.13961,14.37989-62.87757,14.24025-18.86371,33.00263-32.33552,53.82169-42.90045C120.78914,5.94117,174.18914-3.58362,230.18357,1.18589c37.86014,3.22486,74.0145,12.80082,107.82154,30.43289,20.09669,10.48143,38.3348,23.42666,52.57274,41.38259,9.24693,11.66163,15.73575,24.56896,17.51594,39.55444,.05775,.48644,.41462,.93738,.63207,1.40486v12.77505Zm-347.59936,12.10747v.01267c8.51387,0,17.03117,.14859,25.54052-.04733,6.72585-.15485,10.65034-5.41317,9.1283-11.94582-1.32569-5.68994-2.9097-11.31934-4.26743-17.00227-1.67105-6.99444,.49123-11.91222,6.85132-15.28665,28.66013-15.20598,59.14158-24.5474,91.51136-26.75535,42.78736-2.91853,82.74747,7.59809,120.54338,27.19637,6.28153,3.25714,8.46265,8.46166,6.76257,15.35346-1.36757,5.54397-2.93163,11.0396-4.28925,16.58584-1.64678,6.72747,2.19162,12.32973,9.02773,12.4191,17.02515,.22264,34.05546,.17097,51.08248,.05106,5.09291-.03588,8.03962-2.64844,9.52895-7.53553,2.23087-7.32038,2.20712-14.70232,.29861-22.05051-2.81747-10.84764-9.00863-19.7626-16.55899-27.78926-14.84108-15.77734-32.97978-26.73815-52.67376-35.21392-44.79905-19.28034-91.52564-25.97739-139.97323-20.76145-31.45357,3.38633-61.59201,11.53457-89.90187,25.80337-18.19689,9.17164-34.84366,20.5011-47.42435,36.93829-9.38153,12.25735-14.39425,25.70183-10.60665,41.33763,1.50327,6.20574,4.62828,8.61994,11.07546,8.6739,8.11443,.06795,16.22985,.01637,24.34485,.01637Z"></path>
    <path d="M160.41279,172.24691c0-5.61925-.04983-10.66355,.01171-15.70648,.09167-7.51212,4.89829-12.83101,11.70271-13.05489,7.06388-.23241,12.29022,4.8139,12.6112,12.52225,.21955,5.27266,.04204,10.56187,.04204,16.03407h39.31063c0-6.14198-.45585-12.13023,.10646-18.0213,.85112-8.91655,10.88484-13.48823,18.34825-8.66088,3.71608,2.40357,5.64488,5.93378,5.68255,10.38826,.04488,5.30793,.01058,10.61653,.01058,16.4989,6.67361,0,13.1616,.36938,19.58879-.09771,7.29596-.5302,12.5886,2.10641,17.45955,7.47612,13.04827,14.38431,26.86211,28.08197,39.72878,42.62144,22.77234,25.73294,35.96655,55.99827,39.65561,90.11221,1.38233,12.78297,1.12814,25.75373,1.38979,38.64355,.19981,9.84237,.12563,19.69313,.0088,29.53821-.10434,8.79101-4.95556,13.61584-13.66006,13.61781-98.73063,.02247-197.46128,.02237-296.19191-.00015-8.54636-.00195-13.61519-4.73031-13.60161-13.24315,.03372-21.15158-.56912-42.36321,.80003-63.43923,1.85975-28.62802,11.20006-55.1865,27.67056-78.7811,7.12313-10.20419,15.48805-19.6001,23.81981-28.88682,9.8587-10.98872,20.34879-21.40869,30.44275-32.18982,3.51068-3.74971,7.52271-5.57349,12.70101-5.42437,7.28744,.20983,14.58542,.05307,22.36199,.05307Zm-93.50332,197.1022H342.39217c-.77342-19.45807-.54401-38.66794-2.52819-57.6464-2.85027-27.26223-14.09118-51.45378-32.07383-72.1136-12.22057-14.03984-25.34808-27.29406-38.21435-40.7617-1.18307-1.23838-3.41321-2.08226-5.16011-2.08731-40.05444-.11564-80.10941-.12074-120.16375,.01196-1.83978,.00609-4.14454,1.03021-5.43776,2.3558-10.68533,10.95275-21.25351,22.02249-31.72157,33.18397-18.0098,19.20283-30.29973,41.45551-36.34111,67.22644-5.39346,23.00712-3.15052,46.29969-3.84204,69.83083Z"></path>
    <path d="M204.28015,349.51124c-35.05288-.02922-63.75004-28.70904-63.80112-63.76258-.05095-34.96484,28.67392-63.7858,63.70824-63.92135,35.08616-.13575,64.0923,28.88996,63.98516,64.02841-.10692,35.06574-28.83234,63.68473-63.89228,63.65551Zm39.40015-63.89813c-.04864-21.60734-17.82875-39.30929-39.43577-39.26236-21.59306,.04691-39.33612,17.86228-39.275,39.43507,.06109,21.56192,17.93293,39.36784,39.44781,39.30227,21.57076-.06574,39.31153-17.90232,39.26296-39.47498Z"></path>
  </symbol>
  <symbol id="telegram" xmlns="http://www.w3.org/2000/svg" viewBox="0 0 512 433.42738">
    <path d="M512,43.10484c-2.99649,14.29786-6.07272,28.57955-8.97629,42.89625-17.20078,84.81267-34.35983,169.63379-51.53729,254.4512-3.79895,18.7582-7.61349,37.51322-11.42856,56.26815-.26501,1.30282-.57147,2.59838-.89783,3.88741-7.93915,31.35822-37.34793,42.56022-63.4054,23.40667-17.70264-13.01234-34.41583-27.37158-51.56329-41.13875-10.63629-8.53961-21.25726-17.09842-32.19443-25.89746-9.07977,8.34287-18.01251,16.53935-26.9324,24.74975-9.31799,8.57688-18.60481,17.1877-27.93953,25.74626-10.95853,10.0473-23.52159,16.08174-38.67471,13.18116-16.26369-3.11323-26.09775-14.03076-31.53113-29.03175-8.15742-22.52184-15.9267-45.18436-23.84857-67.79145-7.92195-22.60724-15.90038-45.19526-23.66032-67.85805-1.09491-3.19768-2.69837-4.83371-5.93923-5.74695-28.01751-7.89493-55.99168-15.94375-83.97702-23.95277-1.59805-.45734-3.20601-.89853-4.76686-1.4645-11.38364-4.12777-20.7086-10.51701-24.72714-22.68303v-9.00125c2.75507-4.4671,4.61781-10.04336,8.47167-13.14467,5.97199-4.80581,12.9403-8.8672,20.1101-11.61684C157.76593,118.82206,287.03815,69.50943,416.30917,20.19397c16.46368-6.28072,32.79312-13.05543,49.60013-18.25917,22.35788-6.92238,42.01553,5.39509,45.36725,26.35053,.10046,.6284,.47614,1.21279,.72345,1.8177v13.00181ZM246.39177,281.59803c3.02589,2.47123,5.70956,4.68882,8.4202,6.8729,45.02199,36.27641,90.03957,72.55835,135.07713,108.81541,12.27258,9.87995,18.03537,7.69715,21.095-7.80052,3.06274-15.51333,6.20255-31.01149,9.34012-46.50992,20.34384-100.49165,40.70044-200.98067,61.01694-301.47784,.42493-2.10187,.55481-4.2892,.58316-6.43982,.05042-3.83287-2.02084-5.68975-5.72238-4.80842-3.86169,.91946-7.65952,2.20913-11.37506,3.62594C323.84924,87.63375,182.88402,141.42435,41.92273,195.2252c-1.15922,.44244-2.24226,1.08452-4.16364,2.02727,1.55527,.54471,2.25061,.82818,2.96825,1.03385,28.14014,8.06423,56.26727,16.17516,84.45747,24.06048,1.91474,.53557,4.56365-.12557,6.43797-1.0805,69.10185-35.20633,138.15187-70.51444,207.21056-105.80551,14.96802-7.64909,29.91522-15.3396,44.9248-22.90626,7.49408-3.77795,15.25375-2.16807,19.73019,3.82773,4.52377,6.05924,3.86859,13.74456-1.74417,20.06429-1.43832,1.61944-2.95432,3.16998-4.43927,4.74784-40.43503,42.96468-80.87238,85.92723-121.30508,128.89412-9.8024,10.41673-19.59006,20.84735-29.60805,31.50954Zm-57.65912,81.89406c.74002-2.44947,1.06258-3.36943,1.29607-4.31148,6.20103-25.01932,12.52124-50.01038,18.49187-75.08467,1.41049-5.92349,4.15688-10.62144,8.28625-14.98777,33.41887-35.33655,66.71584-70.78845,100.0374-106.21696,.88623-.94225,1.63028-2.01824,2.44064-3.03186l-.52139-.40937c-56.85107,29.05019-113.70213,58.10039-170.84735,87.30089,13.52034,38.67018,26.94928,77.07888,40.81651,116.74123Zm44.46036-53.88076c-6.47345,26.24581-12.72188,51.57932-18.97031,76.91287l.82954,.46985c17.67642-16.27973,35.35284-32.55949,53.28677-49.07638-11.80475-9.50746-23.15991-18.6528-35.14601-28.30634Z"></path>
  </symbol>
  <symbol id="pin" xmlns="http://www.w3.org/2000/svg" viewBox="0 0 328.08288 408.9204">
    <path d="M163.342,408.9204c-.7788-.84839-1.4643-1.81209-2.34984-2.52858-36.86018-29.82603-70.23753-63.14684-99.6977-100.29119-19.80497-24.97079-37.46503-51.35064-49.09287-81.29155C-7.32217,174.53671-3.46638,125.83257,24.13225,79.72799,50.30008,36.01361,89.48413,10.01193,139.71805,2.10475c44.1897-6.95578,84.86093,3.40845,120.97446,29.91352,36.22527,26.58707,57.87279,62.4982,65.2407,106.73165,5.53353,33.22077,.19108,65.06604-13.80178,95.63848-13.79013,30.12956-32.70103,56.84949-53.74021,82.21177-27.27515,32.87963-57.65466,62.60605-90.7929,89.54019-.9874,.80251-1.77739,1.84788-2.65943,2.78004h-1.59688Zm.18029-41.25222c1.27373-.97381,1.71347-1.26479,2.10166-1.61326,20.90897-18.76762,41.05244-38.30414,59.51919-59.51136,24.02164-27.58648,45.69299-56.72047,60.21424-90.64482,12.851-30.02236,14.60614-60.88256,4.25894-91.53671-16.83606-49.87771-51.7551-80.3148-103.6507-90.21773-26.03726-4.96853-51.4171-1.35594-75.56871,9.56814-30.58631,13.83458-52.8545,36.24723-66.6155,66.81465-10.62896,23.61022-13.83349,48.44981-9.96189,74.05061,3.31507,21.92081,12.74729,41.56248,23.8318,60.43867,17.00319,28.95531,38.18213,54.74956,61.39347,78.85049,14.379,14.93007,29.52204,29.12427,44.47752,43.80129Z"></path>
    <path d="M164.14159,239.70506c-41.8472,.00085-75.90464-34.07931-75.86246-75.91311,.04208-41.75257,34.39161-75.98542,76.05973-75.80136,41.66217,.18403,75.61921,34.2022,75.6629,75.79909,.04393,41.83331-34.01253,75.91455-75.86017,75.91538Zm-.14924-31.93772c24.23721,.06294,43.9963-19.54803,44.05931-43.72901,.06299-24.1837-19.61862-44.01435-43.76309-44.09448-24.14271-.08012-43.99915,19.65877-44.05912,43.79827-.06019,24.22475,19.55985,43.96238,43.7629,44.02522Z"></path>
  </symbol>
  <symbol id="email" xmlns="http://www.w3.org/2000/svg" viewBox="0 0 384 270.12942">
    <path d="M384,29.3119V240.82793c-.16631,.33433-.39766,.65174-.48967,1.00542-4.98981,19.1739-16.66221,28.24618-36.36942,28.24641-84.44135,.00096-168.88273,.00066-253.32409,.00021-19.98612-.00009-39.97367,.14254-59.95783-.05619-12.85149-.12779-22.8535-5.872-29.27944-17.03754C2.44767,249.28191,1.49293,244.90002,0,240.82793,0,170.32259,0,99.81724,0,29.3119c.15528-.33284,.36216-.65144,.45845-1.00055C5.89802,8.59052,17.10584,.05981,37.59213,.05977c81.44826-.00019,162.89653-.00037,244.34479,.00011,22.73557,.00014,45.47296-.17242,68.20601,.06769,14.30994,.15115,24.67696,7.07676,30.84352,19.98996,1.37833,2.88626,2.02826,6.1204,3.01355,9.19438Zm-39.34808-5.62369l-.54675-.80789H39.79079c.45782,1.44129,1.45156,2.02808,2.24064,2.81906,46.42733,46.53979,92.83639,93.0978,139.25127,139.65001,7.22665,7.24805,14.21079,7.26288,21.41892,.03646,33.36221-33.44694,66.68662-66.9317,100.08982-100.33763,13.86953-13.87063,27.90207-27.57825,41.86047-41.36ZM39.06952,247.23868H344.95056c-32.48605-32.19311-64.42669-63.8457-96.53959-95.66903-.72473,.69217-1.72034,1.60392-2.67272,2.55877-9.35715,9.38118-18.67113,18.80562-28.06728,28.1475-14.73175,14.64662-36.60844,14.63181-51.32433-.00032-5.67287-5.64058-11.2846-11.34262-16.93478-17.00606-4.65889-4.66984-9.33339-9.32412-13.78543-13.77003-32.14661,31.87437-64.07908,63.53639-96.55692,95.73916Zm-16.41504-16.94589c31.88201-31.57472,64.06587-63.4484,96.3003-95.37215C86.77361,103.01517,54.63191,71.14884,22.65448,39.44536V230.2928Zm338.62197,.21047V39.74841c-31.85678,31.55255-64.01715,63.40579-96.2558,95.33657,32.22796,31.94755,64.37192,63.81183,96.2558,95.41829Z"></path>
  </symbol>
  <symbol id="clock" xmlns="http://www.w3.org/2000/svg" viewBox="0 0 302.8 302.70214">
    <path d="M160.83802,0c5.34105,.75748,10.70093,1.40226,16.01991,2.29176,24.24606,4.05467,46.1244,13.65009,65.74259,28.40986,13.66354,10.27977,25.24641,22.54844,34.72685,36.79006,.37998,.57084,.81131,1.10751,1.55746,2.11954,.09541-1.24424,.20736-2.03334,.20864-2.82261,.0159-9.85451-.06413-19.70997,.04975-29.56323,.06783-5.86832,3.95049-10.39523,9.54593-11.56862,5.16346-1.0828,10.74218,1.68294,12.86541,6.66977,.74801,1.7569,1.12931,3.79943,1.14706,5.71646,.10405,11.23324,.14245,22.46884,.03107,33.70194-.21373,21.55741-16.46995,37.92146-38.01463,38.20793-11.72485,.1559-23.45366,.06994-35.18032,.01589-7.28641-.03358-12.49224-4.99252-12.52009-11.75482-.02786-6.7717,5.17099-11.81371,12.4093-11.86408,9.45992-.06583,18.92066-.01711,28.38103-.01765,.96724-.00005,1.93446,0,3.78816,0-3.6576-5.15385-6.69657-9.95045-10.23853-14.34134-19.39509-24.04349-44.21173-39.624-74.49466-45.64949-36.30748-7.22423-69.93753-.1737-100.03177,21.6095-26.61649,19.26589-43.80614,45.07401-50.37228,77.34328-7.45194,36.62253-.36988,70.51326,21.65262,100.84375,19.2393,26.49733,45.0574,43.29544,77.14216,50.22269,11.12842,2.40267,22.39941,3.2072,33.78026,2.48714,2.43481-.15405,4.96016-.24694,7.33008,.21514,5.71648,1.11462,9.53602,6.31605,9.20969,12.03641-.33144,5.80996-4.92391,10.60174-10.78207,11.06118-35.27812,2.76663-68.00325-4.99446-97.36417-24.88873C32.72144,253.75566,11.01445,221.28078,2.78734,180.04524c-1.11386-5.5828-1.51449-11.30741-2.26384-16.96391-.12602-.95131-.34661-1.89007-.5235-2.83463,0-5.91316,0-11.82632,0-17.73949,.18192-1.04268,.40138-2.08042,.53947-3.12887,.71924-5.46093,1.14233-10.97695,2.1692-16.37861,5.73188-30.15136,19.4546-56.20098,41.02773-77.98046C66.35627,22.18305,93.53584,7.80432,125.28771,2.33125c5.7043-.98325,11.4779-1.56443,17.21951-2.33125,6.11026,0,12.22053,0,18.3308,0Z"></path>
    <path d="M163.20227,104.31093c.00094,15.17417-.05791,30.34872,.03833,45.52228,.02736,4.31417-1.35923,7.83088-4.3984,10.85829-15.07865,15.02031-30.08197,30.11636-45.18441,45.11262-7.19696,7.14636-17.81862,4.76918-20.43486-4.50045-1.33407-4.72674,.19859-8.70764,3.57958-12.08961,5.64279-5.64443,11.28703-11.28739,16.93013-16.93152,8.01169-8.01312,16.06954-15.98129,23.97668-24.09632,1.0154-1.0421,1.76026-2.84635,1.76543-4.30062,.10204-28.67291,.06711-57.34629,.08347-86.01955,.00346-6.07213,2.92668-10.51713,7.92282-12.23649,7.90013-2.71872,15.65179,2.96221,15.69726,11.68096,.08171,15.66641,.02304,31.33356,.02396,47.0004Z"></path>
    <path d="M209.15156,290.60353c-5.39264-.38899-9.845-3.93894-11.23064-9.1453-1.32081-4.96278,.78273-10.29088,5.41541-12.90873,3.84711-2.17396,7.80551-4.18521,11.84285-5.98011,5.7778-2.56866,12.29486-.20202,15.16388,5.25369,2.89819,5.51113,1.17984,12.21452-4.28735,15.45122-3.88356,2.29916-7.99002,4.24159-12.08712,6.14972-1.46994,.68461-3.2037,.80281-4.81704,1.17951Z"></path>
    <path d="M273.6132,190.56565c1.09758-3.76462,2.29476-9.58657,4.51391-14.98872,2.12423-5.17111,8.41346-7.29846,13.79125-5.59693,5.38138,1.70261,8.96383,6.92765,7.97452,12.56659-.86236,4.9155-2.11755,9.813-3.74551,14.52991-1.90483,5.5191-7.60334,8.15963-13.68817,6.93106-5.09936-1.02957-8.87323-5.89634-8.846-13.44191Z"></path>
    <path d="M275.74649,235.03624c-.07588,.68127,.04066,1.56144-.28146,2.23034-3.3641,6.98552-7.64712,13.38712-14.47846,17.29876-4.36608,2.50005-10.01204,.74187-13.35924-3.12459-3.32162-3.8369-4.01793-9.53317-1.10406-13.69934,2.86671-4.09877,6.07739-7.99654,9.46792-11.67785,3.19536-3.46936,8.61451-4.2488,12.83399-2.2117,4.58934,2.2157,6.93499,5.93673,6.92131,11.18437Z"></path>
  </symbol>
  <symbol id="calling" xmlns="http://www.w3.org/2000/svg" viewBox="0 0 283.85057 292.79874">
    <path d="M96.04277,109.45483c13.55972,29.81765,32.16326,55.42045,56.26108,77.36339,5.12748-3.72288,10.12103-7.34518,15.11113-10.97223,20.24796-14.71725,44.5239-10.79694,59.17366,9.56347,5.29802,7.36325,10.63124,14.70172,15.86269,22.11223,13.59037,19.25122,9.18929,44.21641-10.14856,57.68114-8.47476,5.90087-16.87738,11.9154-25.50719,17.58106-18.50036,12.14587-37.9995,13.40174-57.35437,2.90356C76.0634,245.88693,28.20973,185.49473,6.00334,104.91311,3.18105,94.67173,.8314,84.07555,.1326,73.51952-1.16015,53.99139,7.04721,38.24937,22.66483,26.57026c8.54426-6.38954,17.29916-12.50634,26.10114-18.53806,19.21185-13.16527,42.44244-9.08254,56.19285,9.78234,5.47833,7.51601,10.9185,15.06116,16.28315,22.65887,13.3575,18.91761,9.43129,43.32101-9.15906,57.15882-5.23515,3.89684-10.50594,7.74565-16.04014,11.8226ZM72.4575,22.26978l-.40857-.88335c-3.84352,1.57416-8.01342,2.63258-11.46563,4.82509-8.32256,5.2857-16.37303,11.01204-24.41539,16.72709-9.79484,6.96039-14.86447,16.54397-14.13145,28.5984,.3737,6.14542,1.60456,12.30113,3.04196,18.30958,18.85443,78.81274,63.73989,137.7783,134.77108,176.61691,11.79441,6.449,23.66781,5.58754,34.81601-1.92117,8.46766-5.70322,16.74347-11.69615,25.03092-17.66298,9.64371-6.9433,11.41447-17.75311,4.53919-27.42401-5.18908-7.29906-10.45114-14.54628-15.70866-21.79622-7.44124-10.26125-17.80078-11.92666-28.08697-4.51752-7.3555,5.2981-14.65903,10.66904-22.04052,15.93037-5.25586,3.74627-10.16113,3.46414-15.03674-.70538-31.08996-26.58754-54.46808-58.80229-70.20814-96.5874-2.98968-7.17693-1.77795-11.59161,4.43816-16.14446,7.49886-5.49236,15.10387-10.84478,22.48616-16.4898,8.00734-6.12294,9.75969-16.59375,4.09394-24.88389-5.76445-8.43456-11.77477-16.70614-17.86475-24.90953-3.38837-4.56422-8.05551-7.05534-13.85061-7.08172Z"></path>
    <path d="M283.83982,128.86717c.25607,6.54957-4.09268,11.82098-10.03669,12.16148-6.46051,.37007-11.37103-4.06599-12.05683-11.05766-1.22968-12.53723-4.09274-24.6735-8.8704-36.32496-13.36582-32.59588-36.03476-56.32904-67.87709-71.28151-.82959-.38955-1.67298-.75009-2.49763-1.14967-6.10432-2.95779-8.55162-9.14478-5.8923-14.88013,2.58816-5.58197,8.83959-7.86225,14.87088-5.26661,14.42922,6.20976,27.69419,14.34601,39.52535,24.70287,30.13787,26.38235,47.52733,59.57608,52.54458,99.31508,.15816,1.25266,.19879,2.52021,.29012,3.78112Z"></path>
    <path d="M231.31804,130.95364c.16833,6.58599-4.1638,11.76752-10.13219,12.11876-5.92346,.34858-10.90921-3.90587-11.35083-10.4676-.95765-14.22874-5.15858-27.20926-13.74569-38.66037-8.13793-10.8521-18.65594-18.49235-31.3212-23.25319-5.13242-1.92925-7.88635-6.40054-7.31761-11.54262,.55781-5.04278,4.21663-8.90848,9.37307-9.48386,1.75095-.19538,3.69334,.08213,5.3709,.66007,33.32579,11.48136,58.22534,45.4882,59.12356,80.62881Z"></path>
  </symbol>
  <symbol id="arro-right" xmlns="http://www.w3.org/2000/svg" viewBox="0 0 66.50705 32.05498">
    <path d="M65.68848,14.08439L50.84961,.64738c-1.02344-.92773-2.60254-.84863-3.53125,.1748-.92676,1.02344-.84766,2.60449,.17578,3.53125l9.99347,9.04938H2.5c-1.38086,0-2.5,1.11914-2.5,2.5s1.11914,2.5,2.5,2.5H57.66254l-10.26947,9.29865c-1.02344,.92676-1.10254,2.50781-.17578,3.53125,.49414,.54492,1.17285,.82227,1.85449,.82227,.59863,0,1.19824-.21387,1.67676-.64648l14.83887-13.43701c.22699-.20551,.39966-.44659,.53308-.70331,.63708-1.00824,.48236-2.35577-.43201-3.18378Z"></path>
  </symbol>
  <symbol id="arro-left" xmlns="http://www.w3.org/2000/svg" viewBox="0 0 66.50705 32.05498">
    <path d="M.81857,14.08439L15.65744,.64738c1.02344-.92773,2.60254-.84863,3.53125,.1748,.92676,1.02344,.84766,2.60449-.17578,3.53125L9.01944,13.40281h54.98761c1.38086,0,2.5,1.11914,2.5,2.5s-1.11914,2.5-2.5,2.5H8.84451l10.26947,9.29865c1.02344,.92676,1.10254,2.50781,.17578,3.53125-.49414,.54492-1.17285,.82227-1.85449,.82227-.59863,0-1.19824-.21387-1.67676-.64648L.91965,17.97148c-.22699-.20551-.39966-.44659-.53308-.70331-.63708-1.00824-.48236-2.35577,.43201-3.18378Z"></path>
  </symbol>
</svg>